<svg width="1935" height="402" viewBox="0 0 1935 402" fill="none" xmlns="http://www.w3.org/2000/svg">
<path d="M639.53 120.229H676.231C679.651 120.229 681.867 121.439 681.867 125.777C681.867 130.024 685.244 128.857 687.214 128.08C699.259 123.051 712.158 120.385 725.209 120.229C737.051 120.229 746.268 123.968 751.043 129.599C755.603 134.975 755.822 135.8 763.601 131.586C777.215 124.287 792.408 120.43 807.855 120.353C841.575 120.353 848.606 140.792 838.301 157.095L809.105 203.779C808.258 205.168 807.069 206.318 805.652 207.118C804.236 207.919 802.637 208.343 801.01 208.352L768.215 208.528C759.674 208.528 756.372 206.397 762.195 197.632L787.846 157.316C793.897 147.644 790.816 141.028 778.618 141.028C768.588 141.028 758.588 147.136 752.411 156.93L722.842 203.848C722.026 205.197 720.875 206.313 719.502 207.087C718.128 207.862 716.578 208.269 715.001 208.268H682.172C672.187 208.268 670.426 206.013 676.1 197.233L701.844 156.601C707.896 146.929 701.734 141.03 691.005 141.03C685.382 140.94 679.833 142.316 674.902 145.02C669.972 147.725 665.829 151.666 662.883 156.456L632.609 203.853C631.745 205.206 630.553 206.32 629.145 207.092C627.736 207.864 626.156 208.268 624.55 208.268H592.013C584.352 208.268 579.363 207.26 585.986 197.346L631.95 124.4C632.759 123.122 633.878 122.069 635.204 121.34C636.529 120.61 638.017 120.229 639.53 120.229ZM1116.5 149.52C1122.45 138.567 1076.06 136.296 1045.38 144.883C1039.31 146.584 1035.12 145.485 1040 137.621L1045.97 128.145C1048.57 124.025 1050.53 121.384 1058.02 121.726C1076.19 122.554 1102.16 119.739 1132.12 120.834C1158.24 121.788 1185.86 128.99 1167.78 157.591L1141.08 199.576C1135.92 207.664 1134.88 208.377 1125.09 208.377L1094.65 208.426C1093.29 208.428 1091.96 208.092 1090.76 207.45C1089.57 206.807 1088.55 205.878 1087.8 204.745C1087.27 203.938 1086.46 203.353 1085.53 203.099C1084.6 202.844 1083.61 202.937 1082.74 203.36C1070.74 209.087 1057.67 212.263 1044.38 212.689C1034.63 212.689 999.65 211.157 1011.88 182.021C1024.11 152.886 1061.38 154.252 1079.23 154.583C1097.08 154.914 1113.27 155.462 1116.5 149.52ZM1067.27 178.573C1063.59 184.378 1066.12 190.165 1073.73 190.165C1085.98 190.165 1096.65 183.014 1105.12 173.75C1108.08 170.521 1108.41 167.386 1102.15 168.273C1089.54 170.06 1073.34 168.999 1067.27 178.573ZM837.887 313.437C843.835 302.483 797.444 300.213 766.767 308.799C760.694 310.5 756.507 309.401 761.385 301.537L767.362 292.061C769.962 287.942 771.912 285.3 779.408 285.642C797.578 286.471 823.551 283.656 853.512 284.75C879.63 285.704 907.248 292.906 889.167 321.507L862.473 363.492C857.309 371.58 856.263 372.294 846.478 372.294L816.041 372.342C814.683 372.344 813.346 372.009 812.15 371.366C810.954 370.724 809.936 369.794 809.188 368.661C808.657 367.855 807.85 367.27 806.919 367.015C805.987 366.76 804.995 366.853 804.127 367.276C792.123 373.003 779.062 376.179 765.769 376.605C756.018 376.605 721.037 375.074 733.27 345.937C745.5 316.803 782.765 318.168 800.617 318.499C818.47 318.83 834.658 319.379 837.887 313.436V313.437ZM788.659 342.489C784.981 348.294 787.51 354.081 795.114 354.081C807.37 354.081 818.035 346.931 826.513 337.667C829.468 334.437 829.798 331.302 823.535 332.189C810.931 333.976 794.727 332.915 788.659 342.489ZM893.107 120.173H927.548C933.784 120.173 934.906 121.752 935.137 124.149C935.639 127.07 937.045 128.231 940.938 126.63C950.035 122.888 960.855 120.432 975.338 120.329C997.208 120.173 1027.51 123.035 1001.17 165.549C978.84 201.586 953.919 210.308 919.885 210.308C907.116 210.308 899.725 208.312 894.965 205.215C889.143 201.428 888.298 200.437 883.24 208.075L859.63 245.729C858.697 247.217 857.401 248.444 855.863 249.295C854.326 250.146 852.598 250.592 850.841 250.592H817.696C809.855 250.592 806.745 248.354 812.121 240.496L885.013 124.645C885.874 123.276 887.068 122.148 888.484 121.366C889.899 120.584 891.49 120.174 893.107 120.173ZM911.489 163.029C899.22 182.519 907.491 189.571 916.926 189.571C926.359 189.571 938.147 183.95 949.866 165.337C961.022 147.615 953.849 141.527 943.579 141.527C932.257 141.527 919.217 150.756 911.491 163.029H911.489ZM1002.53 316.45C968.596 317.658 965.617 311.295 970.303 306.822C975.145 302.201 986.824 301.098 1003.19 301.098C1017.06 300.907 1030.89 302.726 1044.24 306.498C1053.11 309.165 1055.39 309.019 1060.94 300.914L1062.7 298.513C1067.71 292.072 1067.86 288.33 1058.02 286.533C1038.03 282.804 1017.7 281.12 997.367 281.507C978.04 282.188 945.648 283.054 921.423 307.918C901.908 327.947 909.325 346.051 954.803 345.262C975.932 344.894 979.065 347.693 975.901 353.557C973.406 358.18 967.5 360.449 947.981 360.449C935.157 360.449 917.834 360.54 904.111 353.939C897.359 350.69 895.379 350.765 891.872 358.471L891.238 359.899C887.456 367.565 889.216 369.326 896.832 371.837C911.858 376.791 933.724 378.474 955.75 378.474C982.858 378.474 1017.13 370.603 1032.94 350.275C1042.2 338.373 1047.81 314.839 1002.53 316.45H1002.53ZM1278.6 143.724C1286.08 143.724 1296.47 144.664 1304.35 148.168C1312.93 151.978 1315.3 150.767 1319.66 142.851L1324.2 135.426C1328.78 128.48 1327.29 125.235 1318.59 125.203C1296.05 125.12 1289.38 120.523 1264.09 120.523C1216.98 120.523 1176.91 146.743 1176.91 181.58C1176.91 209.723 1214.44 215.035 1235.46 215.035C1246.74 215.035 1257.27 214.74 1267.45 212.647C1278.04 210.468 1279.7 208.928 1284.71 200.864L1291.14 190.877C1295.71 183.781 1293.12 181.469 1285.9 184.816C1275.55 189.692 1264.28 192.267 1252.84 192.365C1231.4 192.365 1224.14 179.433 1234.14 163.092C1245.87 143.899 1267.81 143.724 1278.6 143.724ZM1547.95 331.323L1560.5 311.477C1562.92 307.366 1565.45 306.201 1570.03 306.201L1598.98 306.075C1600.61 306.069 1602.22 305.648 1603.65 304.851C1605.08 304.054 1606.29 302.909 1607.15 301.52L1611.26 294.944C1615.56 288.622 1614.53 285.307 1605.92 285.307H1586.18C1579.86 285.307 1577.85 283.155 1582.02 277.755L1585.38 272.434C1589.59 265.951 1588.15 262.825 1580.09 262.825H1546.15C1544.49 262.825 1542.85 263.246 1541.39 264.049C1539.93 264.852 1538.7 266.01 1537.82 267.416L1529.48 280.608C1528.57 282.047 1527.31 283.232 1525.82 284.054C1524.33 284.875 1522.65 285.306 1520.95 285.307H1482.13C1475.14 285.307 1474.4 282.495 1477.92 277.606L1481.41 272.19C1485.37 266.722 1484.45 262.825 1476.29 262.825H1442.66C1440.8 262.825 1438.97 263.296 1437.34 264.195C1435.71 265.094 1434.33 266.391 1433.33 267.965L1424.84 281.396C1424.09 282.593 1423.04 283.58 1421.8 284.264C1420.56 284.948 1419.16 285.306 1417.74 285.307H1407.17C1405.35 285.306 1403.56 285.776 1401.98 286.67C1400.4 287.564 1399.08 288.852 1398.14 290.409L1394.11 297.106C1389.45 303.992 1393.08 306.01 1398.9 306.107L1401.63 306.245C1407.46 306.486 1407.42 309.238 1405.01 312.765L1393.28 331.325C1367.04 373.213 1390.81 375.332 1414.94 375.331C1427.23 375.329 1444.47 372.924 1454.68 371.269C1462.54 369.996 1465.04 367.814 1466.92 364.195L1467.69 362.718C1471.07 356.505 1469.09 353.643 1462.01 355.306C1456.74 356.432 1451.36 356.956 1445.98 356.867C1429.25 356.867 1435.74 344.276 1442.9 332.935L1457.54 309.814C1458.23 308.737 1459.17 307.85 1460.28 307.233C1461.4 306.616 1462.65 306.289 1463.92 306.282L1503.95 306.08C1511.18 306.08 1512 308.356 1508.35 314.029L1497.42 331.323C1470.55 373.653 1494.99 375.334 1519.12 375.331C1531.59 375.329 1551.97 372.265 1561.98 370.625C1563.81 370.324 1565.55 369.6 1567.06 368.51C1568.57 367.421 1569.8 365.995 1570.66 364.346L1571.49 362.744C1574.66 357.403 1573.78 353.22 1565.85 355.313C1560.92 356.424 1555.87 356.916 1550.81 356.78C1532.18 356.78 1540.21 342.949 1547.95 331.323ZM1914.27 0H219.403C203.062 0 189.75 7.76594 182.239 19.7406L3.50887 304.709C-4.76024 316.558 1.84295 335.541 20.6064 335.541H471.785C473.334 335.541 474.857 335.135 476.2 334.363C477.544 333.592 478.662 332.482 479.443 331.143L485.348 321.028C485.741 320.354 485.95 319.588 485.953 318.808C485.956 318.028 485.753 317.261 485.364 316.584C484.976 315.907 484.416 315.345 483.741 314.954C483.065 314.563 482.299 314.357 481.519 314.357H37.8823C30.233 314.357 28.8574 308.854 32.1257 304.018L202.344 32.246C206.626 25.4188 213.349 21.1315 223.308 21.1315L1894.96 21.0211C1905.31 21.0211 1906.96 25.8633 1901.94 33.6081L1812.65 176.08C1808.36 182.907 1802.41 189.397 1790.86 188.685L1400.52 189.471L1395.81 189.468C1375.03 189.468 1387.01 173.998 1391.17 167.49L1405.25 145.225C1407.11 142.278 1410.39 141.415 1413.88 141.415L1441.06 141.615C1446.45 141.615 1448.97 139.866 1450.83 136.922L1456.09 128.62C1459.22 124.065 1457.02 120.689 1450.93 120.689H1428.77C1423.23 120.689 1422.35 118.084 1425.14 113.786L1429.21 107.367C1432.8 101.825 1432.14 98.357 1424.25 98.357L1389.41 98.3827C1387.89 98.3838 1386.4 98.7665 1385.07 99.4955C1383.73 100.225 1382.61 101.277 1381.79 102.555L1372.53 116.994C1371.78 118.155 1370.76 119.11 1369.55 119.772C1368.34 120.434 1366.98 120.781 1365.6 120.781H1353.88C1352.35 120.781 1350.86 121.173 1349.53 121.917C1348.21 122.662 1347.09 123.735 1346.3 125.034L1341.29 133.152C1337.36 139.131 1340.19 141.69 1345.87 141.539L1347.97 141.578C1355.02 141.69 1355.54 144.056 1352.14 149.32L1340.65 167.492C1314.09 209.316 1337.2 210.4 1366.65 210.4L1794.6 210.415C1801.95 210.526 1809.21 208.735 1815.67 205.217C1822.13 201.699 1827.57 196.573 1831.47 190.334L1931.55 31.035C1940.8 15.6271 1930.23 0 1914.27 0ZM581.443 169.903C564.293 197.095 541.867 209.853 489.823 209.853C445.862 209.853 418.609 196.102 442.798 157.75C459.947 130.558 483.383 117.975 533.274 117.975C577.235 117.975 605.632 131.551 581.443 169.903ZM535.133 165.836C543.369 152.778 545.579 137.421 526.917 137.421C508.164 137.421 498.984 145.981 489.236 161.435C481 174.494 478.452 190.496 497.159 190.496C516.198 190.496 525.386 181.292 535.133 165.836ZM1372.1 314.775C1368.46 321.618 1362.42 330.96 1358.58 336.69C1355.41 341.428 1353.7 342.655 1346.38 342.655H1273.86C1268.39 342.655 1266.95 345.029 1266.38 347.977C1265.23 353.974 1268.8 361.209 1293.78 361.209C1314.26 361.209 1328.6 358.784 1338.09 355.95C1346 353.588 1347.16 357.88 1343.44 363.029L1339.56 369.216C1336.1 374.223 1333.84 374.885 1328.17 375.269C1317.09 376.022 1293.86 378.324 1269.85 377.524C1248.49 376.814 1193.93 377.18 1227.25 324.363C1243.61 298.411 1258.86 285.284 1319.06 285.284C1358.4 285.284 1384.92 290.639 1372.1 314.775ZM1316.07 320.794C1323.33 308.703 1320.41 303.847 1308.53 303.847C1296.75 303.847 1289.99 307.478 1281.51 319.968C1279.54 322.875 1281.29 325.086 1285.09 325.086H1308.42C1309.96 325.124 1311.49 324.745 1312.83 323.99C1314.18 323.235 1315.29 322.131 1316.07 320.794ZM476.201 73.0395C443.386 72.3002 432.356 64.6537 388.929 64.6537C349.507 64.6537 270.463 71.6592 226.335 140.915C162.586 240.963 313.609 246.554 384.154 225.274C388.473 223.975 392.17 221.144 394.551 217.313L402.291 204.841C407.365 196.667 406.125 193.302 400.187 195.629C399.9 195.752 399.607 195.874 399.309 195.997L399.272 196.013C388.453 200.487 370.59 205.735 345.618 206.232C304.646 207.048 276.261 174.833 304.212 137.268C332.488 99.2701 377.838 94.3675 400.649 94.3675C420.721 94.3675 441.987 99.4047 455.758 107.541C457.184 108.387 458.887 108.633 460.494 108.224C462.101 107.815 463.48 106.784 464.328 105.36L479.732 79.4131C480.108 78.7794 480.312 78.0583 480.322 77.3216C480.333 76.5848 480.151 75.858 479.794 75.2135C479.437 74.569 478.917 74.0292 478.287 73.6478C477.657 73.2664 476.937 73.0566 476.201 73.0395ZM767.733 239.678C734.918 238.941 723.888 231.294 680.461 231.294C641.038 231.294 561.995 238.298 517.867 307.554C454.117 407.602 605.143 413.194 675.685 391.915C680.005 390.616 683.702 387.785 686.083 383.954L693.823 371.482C698.896 363.308 697.657 359.942 691.719 362.269C691.432 362.391 691.139 362.514 690.84 362.638L690.804 362.653C679.985 367.126 662.122 372.375 637.15 372.873C596.178 373.689 567.793 341.472 595.744 303.909C624.02 265.911 669.37 261.008 692.181 261.008C712.252 261.008 733.519 266.045 747.29 274.181C748.716 275.027 750.42 275.272 752.027 274.863C753.634 274.453 755.012 273.422 755.859 271.997L771.264 246.051C771.64 245.417 771.843 244.696 771.854 243.959C771.865 243.222 771.683 242.495 771.326 241.851C770.969 241.206 770.449 240.667 769.819 240.285C769.188 239.904 768.469 239.694 767.733 239.677V239.678ZM1161.17 316.45C1127.24 317.658 1124.26 311.295 1128.95 306.822C1133.79 302.201 1145.47 301.098 1161.83 301.098C1175.71 300.907 1189.53 302.726 1202.89 306.498C1211.76 309.165 1214.03 309.019 1219.58 300.914L1221.34 298.513C1226.35 292.072 1226.5 288.33 1216.67 286.533C1196.67 282.804 1176.35 281.12 1156.01 281.507C1136.68 282.188 1104.29 283.054 1080.07 307.918C1060.55 327.947 1067.97 346.051 1113.45 345.262C1134.58 344.894 1137.71 347.693 1134.55 353.557C1132.05 358.18 1126.14 360.449 1106.63 360.449C1093.8 360.449 1076.48 360.54 1062.75 353.939C1056 350.69 1054.02 350.765 1050.52 358.471L1049.88 359.899C1046.1 367.565 1047.86 369.326 1055.48 371.837C1070.5 376.791 1092.37 378.474 1114.39 378.474C1141.5 378.474 1175.78 370.603 1191.59 350.273C1200.84 338.373 1206.46 314.837 1161.17 316.45H1161.17ZM1751.37 314.775C1747.74 321.618 1741.7 330.96 1737.86 336.69C1734.69 341.428 1732.98 342.655 1725.66 342.655H1653.14C1647.67 342.655 1646.23 345.029 1645.66 347.977C1644.5 353.974 1648.08 361.209 1673.06 361.209C1693.53 361.209 1707.87 358.784 1717.37 355.95C1725.28 353.588 1726.43 357.88 1722.72 363.029L1718.84 369.216C1715.37 374.223 1713.12 374.885 1707.45 375.269C1696.37 376.022 1673.14 378.324 1649.13 377.524C1627.77 376.814 1573.21 377.18 1606.52 324.363C1622.89 298.411 1638.14 285.284 1698.34 285.284C1737.68 285.284 1764.2 290.639 1751.37 314.775ZM1695.34 320.794C1702.61 308.703 1699.69 303.847 1687.81 303.847C1676.03 303.847 1669.26 307.478 1660.79 319.968C1658.82 322.875 1660.57 325.086 1664.37 325.086H1687.7C1689.24 325.124 1690.76 324.746 1692.11 323.991C1693.46 323.235 1694.57 322.131 1695.34 320.794Z" fill="white"/>
</svg>
